Coordinates
version=1
nRows=19
nColumns=24
inDegrees=yes

Units are S.I. units (second, meters, Newtons, ...)
Angles are in degrees.

endheader
time	pelvis_tilt	pelvis_list	pelvis_rotation	pelvis_tx	pelvis_ty	pelvis_tz	hip_flexion_r	hip_adduction_r	hip_rotation_r	knee_angle_r	ankle_angle_r	subtalar_angle_r	mtp_angle_r	hip_flexion_l	hip_adduction_l	hip_rotation_l	knee_angle_l	ankle_angle_l	subtalar_angle_l	mtp_angle_l	lumbar_extension	lumbar_bending	lumbar_rotation
      3.59000000	     -8.69920180	     -1.13729050	     -6.20485368	     -1.11516582	     -0.03620372	     -0.26923504	     -6.27318850	      3.51467540	      4.16707118	    -19.61617830	      6.39106425	     10.64623606	     17.61127147	     36.61755498	     -2.71242777	     -0.30731295	    -15.27353497	      5.02283511	     16.84236585	    -12.06828822	      8.30175005	      1.71617876	      5.60125647
      3.59500000	     -8.76129207	     -0.93101324	     -6.41877884	     -1.10751667	     -0.03739368	     -0.26936185	     -6.21275931	      3.12851120	      4.05730547	    -20.48184781	      6.00868024	     11.30213911	     18.49096213	     36.68997337	     -2.52575821	     -0.37810388	    -15.96616861	      4.34504318	     16.55590720	    -11.36563150	      8.50837746	      1.40695858	      5.77288342
      3.60000000	     -8.82060229	     -0.70720374	     -6.58706633	     -1.09984163	     -0.03856410	     -0.26954431	     -6.12324213	      2.71304672	      3.82665927	    -21.38508397	      5.54710058	     11.98814101	     19.46174538	     36.76640756	     -2.29712843	     -0.43439387	    -16.68940799	      3.48842888	     16.11841554	    -10.55785472	      8.71263408	      1.06622276	      5.93333755
      3.60500000	     -8.89638714	     -0.42632904	     -6.69818083	     -1.09208011	     -0.03966621	     -0.26973471	     -6.00398098	      2.23752950	      3.54270953	    -22.28114333	      4.93743178	     12.63534470	     20.62857690	     36.84940441	     -1.99535416	     -0.52475690	    -17.38658441	      2.40024974	     15.56481885	     -9.58510090	      8.95708151	      0.63499373	      5.97460157
      3.61000000	     -8.98491150	     -0.17333926	     -6.84526680	     -1.08446129	     -0.04072956	     -0.26992422	     -5.79663964	      1.77097197	      3.21850251	    -23.29712030	      4.34473887	     13.47928153	     21.56628236	     36.98540309	     -1.74710085	     -0.66326733	    -18.19113289	      1.41177882	     14.94699677	     -9.06297821	      9.18289177	      0.24704421	      6.10072947
      3.61500000	     -9.06489116	      0.16120385	     -6.87802331	     -1.07671133	     -0.04167086	     -0.27019567	     -5.61242322	      1.21516370	      2.79174947	    -24.23232971	      3.47997286	     14.16908834	     23.05364777	     37.09528999	     -1.35251850	     -0.73845954	    -18.92771724	      0.17255057	     14.09229846	     -8.26198668	      9.43012163	     -0.26830161	      6.06515052
      3.62000000	     -9.17162413	      0.49117090	     -6.93325090	     -1.06905489	     -0.04252237	     -0.27046406	     -5.32807112	      0.64413131	      2.31505445	    -25.27129398	      2.54820533	     15.00196673	     24.35826179	     37.24936408	     -0.98053010	     -0.83025949	    -19.71874594	     -0.92857384	     13.20170414	     -7.87090493	      9.68969924	     -0.76690698	      6.08027631
      3.62500000	     -9.33777447	      0.84255188	     -7.04527518	     -1.06143508	     -0.04332470	     -0.27069170	     -4.90856659	      0.03971924	      1.91186671	    -26.44010730	      1.67464951	     16.04370550	     25.09785807	     37.48010841	     -0.63466671	     -1.00847281	    -20.57939746	     -1.77935161	     12.35192885	     -7.97641289	     10.01576389	     -1.26293795	      6.15566244
      3.63000000	     -9.35895248	      1.18194386	     -6.92353510	     -1.05383444	     -0.04388945	     -0.27122060	     -4.68070850	     -0.59520680	      1.14847943	    -27.43835840	      0.24911252	     16.80721930	     27.22055295	     37.53822234	     -0.09716662	     -0.77860680	    -21.35774995	     -2.77387269	     11.18899432	     -7.88566013	     10.15883665	     -1.81821683	      5.97882260
      3.63500000	     -9.52191699	      1.52824929	     -6.93513136	     -1.04630280	     -0.04451843	     -0.27164302	     -4.18966809	     -1.23740364	      0.58976261	    -28.67842670	     -0.93004273	     17.90998945	     28.13877680	     37.76382310	      0.34008177	     -0.75124270	    -22.22306796	     -3.44017151	     10.18278235	     -8.14192042	     10.45986623	     -2.31873231	      5.93076438
      3.64000000	     -9.54936575	      1.89985951	     -6.81572948	     -1.03870184	     -0.04484669	     -0.27217736	     -3.88487773	     -1.93158916	     -0.11963730	    -29.74371060	     -2.64327588	     18.66199408	     30.09738772	     37.79107188	      0.92365864	     -0.48634860	    -22.99972125	     -4.01657205	      9.13942946	     -8.52099510	     10.61588587	     -2.90015123	      5.80047844
      3.64500000	     -9.71880525	      2.28123513	     -6.78104193	     -1.03117989	     -0.04529095	     -0.27264620	     -3.31213140	     -2.62969341	     -0.67184575	    -31.07601099	     -4.06461278	     19.71618943	     30.69094899	     37.97071542	      1.43790672	     -0.36616899	    -23.79891493	     -4.38269576	      8.28503755	     -8.80748885	     10.92769073	     -3.43958698	      5.76420066
      3.65000000	     -9.68374623	      2.61271691	     -6.65264911	     -1.02364336	     -0.04541552	     -0.27332881	     -3.01106740	     -3.31289913	     -1.30237398	    -32.19713798	     -6.05950151	     20.39571003	     32.53677966	     37.87073267	      2.04880105	      0.05217682	    -24.53286383	     -4.52236289	      7.29932026	     -9.33977234	     10.99465475	     -3.95132187	      5.60733678
      3.65500000	     -9.79506802	      2.95192009	     -6.57621939	     -1.01624396	     -0.04567943	     -0.27395259	     -2.44065461	     -3.98411313	     -1.78752844	    -33.56486273	     -7.76775766	     21.27522925	     33.12745103	     37.93090643	      2.59755238	      0.30115044	    -25.26625848	     -4.56902118	      6.50051614	     -9.61476853	     11.21283231	     -4.43574289	      5.48748467
      3.66000000	     -9.85133813	      3.31572556	     -6.46169005	     -1.00881088	     -0.04580813	     -0.27462810	     -1.91479706	     -4.68357023	     -2.25746597	    -34.92235970	     -9.62460673	     21.94617495	     33.72605666	     37.87184564	      3.21500511	      0.61951575	    -25.90981925	     -4.47499607	      5.75976951	     -9.87895759	     11.37785494	     -4.95086969	      5.35574212
      3.66500000	     -9.89092785	      3.67257347	     -6.34790459	     -1.00145020	     -0.04585855	     -0.27527923	     -1.36680986	     -5.36005093	     -2.64756163	    -36.31214271	    -11.54432536	     22.41516040	     34.17549372	     37.75367135	      3.82678032	      0.92760019	    -26.49250078	     -4.24827311	      5.11796837	    -10.10833567	     11.51601602	     -5.45887265	      5.22735566
      3.67000000	     -9.93424419	      4.04113581	     -6.23361583	     -0.99410268	     -0.04583912	     -0.27587655	     -0.77876067	     -6.01575201	     -2.92867589	    -37.74193790	    -13.44424160	     22.65782220	     34.23302237	     37.59049201	      4.43417589	      1.17385164	    -26.99514663	     -3.92081951	      4.61950888	    -10.21523957	     11.66606526	     -5.97829860	      5.08081138
      3.67500000	     -9.97501347	      4.39402848	     -6.11702120	     -0.98698676	     -0.04580629	     -0.27659605	     -0.11518180	     -6.66542615	     -3.19993473	    -39.25809016	    -15.28154931	     22.80540899	     34.18322468	     37.40200144	      5.04795172	      1.47065146	    -27.44514295	     -3.54313886	      4.09222938	    -10.37202852	     11.76942674	     -6.45039880	      4.97419472
      3.68000000	     -9.98788040	      4.76164078	     -5.99849162	     -0.97987412	     -0.04567651	     -0.27718665	      0.54854194	     -7.29492053	     -3.40734575	    -40.79352055	    -17.06157514	     22.63864696	     33.82220860	     37.13810672	      5.63552847	      1.61749049	    -27.81240765	     -3.07246162	      3.81783976	    -10.30817425	     11.85522650	     -6.95410544	      4.84072059
